# xmcd
#
# Track frame offsets:
#	150
#	16359
#	33553
#	53225
#	71145
#	91028
#	109697
#	130183
#	145725
#	162552
#	188535
#	204481
#	222916
#	243031
#
# Disc length: 3501 seconds
#
# Revision: 1
# Processed by: cddbd v1.5.2PL0 Copyright (c) Steve Scherf et al.
# Submitted via: audiograbber 1.83.01
#
DISCID=bf0dab0e
DTITLE=Tim Bragg - Stranger Through The Window
DYEAR=2010
DGENRE=Country
TTITLE0=On The Radio
TTITLE1=Chasing Down Dreams
TTITLE2=Where Is The Fighter
TTITLE3=When Spring Comes Round
TTITLE4=Some Answers
TTITLE5=No Confidence
TTITLE6=Night Is Falling
TTITLE7=Sunrise
TTITLE8=Get Right Back
TTITLE9=Stranger Through The Window
TTITLE10=Can´t Run Away
TTITLE11=The Montbron Girl
TTITLE12=Cruel Trick
TTITLE13=Won´t Change A Thing
EXTD=
EXTT0=
EXTT1=
EXTT2=
EXTT3=
EXTT4=
EXTT5=
EXTT6=
EXTT7=
EXTT8=
EXTT9=
EXTT10=
EXTT11=
EXTT12=
EXTT13=
PLAYORDER=
